<?xml version="1.0" standalone="no"?><!DOCTYPE svg PUBLIC "-//W3C//DTD SVG 1.1//EN" "http://www.w3.org/Graphics/SVG/1.1/DTD/svg11.dtd"><svg t="1662689891753" class="icon" viewBox="0 0 1024 1024" version="1.1" xmlns="http://www.w3.org/2000/svg" p-id="27924" width="61" height="61" xmlns:xlink="http://www.w3.org/1999/xlink"><path d="M559.84419542 264.70148281q0-113.42000531-0.11253844-226.84001156c0-4.61407687 0.93782063-5.87075625 5.74883907-5.8613775 85.61362875 0.16880813 171.21787969 0.05626969 256.83150937 0.14067281a186.62626969 186.62626969 0 0 1 39.25716375 369.25742532 201.05932687 201.05932687 0 0 1-40.41068344 4.10765343q-106.91153156 0.04689094-213.82306312-0.11253843c-5.22366 0-6.47096156 1.35984-6.41469188 6.48033937 0.27196781 26.77477406 0.05626969 53.54954813 0.20632125 80.32432219 0 3.82630781-0.81590344 5.20490344-4.91418 5.08298625a473.86191844 473.86191844 0 0 0-30.54481219 0c-4.61407687 0.16880813-5.94578156-0.93782063-5.93640281-5.75821781 0.1969425-52.6117275 0.12191625-105.21407625 0.12191625-157.82580375z m41.17969594-46.05636281c0 46.56278531 0.07502531 93.12557062-0.12191719 139.67897813 0 4.83915375 1.41610875 5.76759563 5.96453813 5.75821781q107.16474281-0.22507687 214.33886437-0.07502531a145.36216969 145.36216969 0 1 0 0-290.72434032c-71.4431625-0.0656475-142.89570281 0.05626969-214.33886437-0.16880812-5.39246719 0-6.00205125 1.78185844-5.98329375 6.39593531 0.16880813 46.38459938 0.16880813 92.75982094 0.16880718 139.1350425z" fill="#000000" p-id="27925"></path><path d="M55.37181729 850.38911188v18.51257531c0 39.03208687-0.12191625 78.06417469 0.15005157 117.09626156 0 5.19552563-1.46299969 6.17085844-6.20837156 5.97391688a301.08725625 301.08725625 0 0 0-27.14052375 0c-4.68910219 0.22507687-5.41122375-1.48175625-5.37371157-5.62692282 0.1969425-21.86997281 0.09378188-43.73994563 0.09378188-65.64743156q0-151.59867656-0.13129406-303.20673094c0-5.26117313 1.41610875-6.56474344 6.45220406-6.32091 9.218775 0.41264062 18.48444094 0.3282375 27.71259469 0 3.89195531-0.131295 4.60469813 1.228545 4.53905062 4.74537188-0.20632031 11.25384563-0.07502531 22.50769125-0.07502531 34.94319 36.92199094-37.51281844 80.65255875-54.06534937 131.98885031-46.65656719a144.18989437 144.18989437 0 0 1 96.39856406 57.56341875A148.26003563 148.26003563 0 0 1 55.37181729 850.38911188z m219.61879407-99.53088469a109.80001875 109.80001875 0 1 0-109.58432063 109.67810156 109.7249925 109.7249925 0 0 0 109.60307625-109.67810156z" fill="#000000" p-id="27926"></path><path d="M518.58009542 769.99914219c-40.90772812 0-81.81545625 0.11253844-122.72318438-0.14067281-5.05485187 0-4.98920437 1.76310281-4.08889687 5.46749343a109.32172969 109.32172969 0 0 0 110.13763313 85.02280219 106.09562813 106.09562813 0 0 0 90.96858468-53.20255406 6.06769875 6.06769875 0 0 1 8.35597969-3.30112875c8.96556375 2.81346094 18.05304375 5.30806406 27.19679344 7.25873062 5.10174281 1.07849344 4.68910219 2.94475594 2.71967906 6.61163438a148.27879219 148.27879219 0 1 1 8.646705-112.80104438 149.99500313 149.99500313 0 0 1 6.5647425 60.75200907c-0.36574969 3.75128156-1.68807656 4.41713437-5.10174281 4.40775656q-61.31470125-0.16880813-122.67629344-0.07502625zM390.97086636 731.29529281c1.51926938 0.08440406 2.63527594 0.20632031 3.75128156 0.20632031q103.77921094 0 207.55842281 0.12191625c4.68910219 0 4.85791031-1.77248063 3.84506344-5.19552468-1.1628975-3.96698063-2.03507063-8.04649969-3.5355825-11.88218532-16.52439656-42.27694594-47.05983-67.87006594-92.28153281-72.737355a105.54231375 105.54231375 0 0 0-102.86952563 48.37277907 98.07726281 98.07726281 0 0 0-16.46812687 41.11404937z" fill="#000000" p-id="27927"></path><path d="M733.10652354 639.07002875a135.777645 135.777645 0 0 1 89.29926375-41.2641 132.89853656 132.89853656 0 0 1 111.71317219 46.16890125 135.12117094 135.12117094 0 0 1 34.3054725 93.70701937q-0.1969425 73.2437775 0.07502532 146.47817719c0 4.44526875-0.6377175 6.20837156-5.62692282 5.95515938a275.71921313 275.71921313 0 0 0-27.70321593 0c-4.73599313 0.22507687-5.354955-1.52864719-5.34557626-5.62692282q0.1969425-75.21320062 0.08440313-150.43577812a98.33985281 98.33985281 0 0 0-196.00447406-11.92907625 104.15433937 104.15433937 0 0 0-0.83466 13.51399219c0 49.57318875-0.07502531 99.15575625 0.12191625 148.73832375 0 4.77350625-1.18165406 5.94578156-5.84262094 5.75821781a422.39433187 422.39433187 0 0 0-28.83797906 0c-3.27299344 0.07502531-4.00449375-0.99408938-4.00449375-4.10765344q0.12191625-135.16806188 0-270.33612375c0-3.36677531 0.65647406-4.54842937 4.27646156-4.44526875 10.17535219 0.26259 20.36008219 0.1969425 30.53543344 0 2.90724375-0.04689094 3.90133312 0.69398719 3.81693 3.75128156-0.16880813 7.63385813-0.02813437 15.30522937-0.02813532 24.07385063z" fill="#000000" p-id="27928"></path><path d="M443.09492698 496.8495575c-1.35046125-1.26605719-2.57900625-2.36330719-3.75128156-3.52620469l-73.14999563-73.14999562q-53.98094531-53.98094531-108.02753812-107.90562094c-2.81346094-2.81346094-3.50744812-4.31397375-0.18756375-7.40878219a494.4470775 494.4470775 0 0 0 23.9894475-23.98006875c3.17921156-3.39490969 4.85791031-3.4886925 8.24344125-0.07502531q67.38239906 67.77628406 135.04614562 135.24308719c15.33336469 15.32398594 30.59170312 30.72299812 46.05636188 45.95320218 2.72905781 2.68216687 3.08542969 4.17330094 0.131295 6.98676282-8.59981312 8.17779469-16.88076844 16.71196031-25.32115219 25.09607531-0.88155094 0.85341656-1.8662625 1.70683312-3.02916 2.76657z" fill="#000000" p-id="27929"></path><path d="M230.26595323 220.01433781c-1.49113406 1.60367344-2.325795 2.55087187-3.21672375 3.44180157-8.65608281 8.67483937-17.4059475 17.24651813-25.93073531 26.05265156-2.23201312 2.31641625-3.45117938 2.325795-5.6831925 0-7.31499938-7.60572375-14.87383219-15.00512719-22.33888313-22.44204281Q93.53173198 147.50206063 13.86388386 68.03115594c-3.75128156-3.75128156-3.37615406-5.62692281 0.1969425-8.94680719a656.94322688 656.94322688 0 0 0 24.38333156-24.3833325c2.2601475-2.34455156 3.40428844-2.18512125 5.62692281 0q91.47500719 91.65319313 183.09068719 183.15633469a21.24163312 21.24163312 0 0 0 3.10418531 2.15698687z" fill="#000000" p-id="27930"></path><path d="M474.49315573 63.68904687c-1.35046125 1.43486531-2.47584563 2.68216687-3.65749968 3.86382L357.29373354 181.10416719c-22.50769125 22.50769125-45.10916344 45.01538156-67.52307187 67.64499-2.99164687 3.03853781-4.46402531 3.07605094-7.37126906 0a448.10936906 448.10936906 0 0 0-24.01758188-23.93317875c-3.94822406-3.60123094-2.897865-5.2893075 0.30948094-8.44038375q80.70882844-80.41810406 161.19257906-161.06128406c6.93049312-6.93049312 13.92663375-13.79533875 20.74458844-20.83837125 1.87564125-1.87564125 2.86035281-2.17574344 4.85791031-0.13129407 8.81551219 9.04058906 17.81858906 17.90299219 26.73726094 26.84042063 0.7690125 0.703365 1.43486531 1.55678156 2.26952531 2.50398094z" fill="#000000" p-id="27931"></path><path d="M229.40315886 308.04754438c-0.20632031 1.87564125-1.69745531 2.59776281-2.70092344 3.61060874q-16.74009469 16.88076844-33.56459344 33.61148438-73.76895656 73.75957875-147.43475343 147.63169594c-3.75128156 3.80755125-5.62692281 3.423045-8.96556375-0.16880813a664.23009188 664.23009188 0 0 0-24.38333157-24.38333156c-2.36330719-2.27890406-2.15698687-3.47931375 0.07502532-5.70194813q91.46562844-91.25930812 182.74369406-182.69680218c2.1945-2.20387781 3.43242281-3.06667312 6.05832-0.30948094 8.44038375 8.86240313 17.24651813 17.4059475 25.89322219 26.07140812 0.79714781 0.75025594 1.55678156 1.57553813 2.27890406 2.33517375z" fill="#000000" p-id="27932"></path></svg>