<svg id="Layer_1" data-name="Layer 1" xmlns="http://www.w3.org/2000/svg" viewBox="0 0 1165.91 866.46"><title>Words_and_Picture_Comic_Jam_WP</title><path d="M-388.53-7.19c5.89,10.47,4.91,21,5.26,31.42.91,26.86,1.4,53.76,3.42,80.55,1.26,16.7,1.31,33.59,3.53,50,1.95,14.4.06,29,3.18,42.91,3.16,14,1.37,28.06,3.24,42,1.56,11.63,1.19,23.54,3,35.13,2.41,15.65.95,31.66,3.66,47,2.5,14.12-.21,28.3,2.78,41.89,3,13.8.54,27.8,3.27,41.23,2.46,12.09,1.72,24.11,2.77,36.13,1.34,15.37,1.24,31,4.1,46.08,2.16,11.41.13,23.05,2.88,33.9,3.13,12.37,1.48,24.66,2.73,36.91,1.34,13.18,2.44,26.38,3.93,39.54.17,1.51,2.13,2.83,3.27,4.23.82-1.35,2.15-2.62,2.39-4.07,1.31-7.87,1.62-16,3.66-23.65a208.24,208.24,0,0,0,6.58-34.72A125.23,125.23,0,0,1-321.57,518a235.73,235.73,0,0,0,6.25-35.07c1.5-13.21,3.47-26.5,7-39.27,1.85-6.71,1.61-13.27,2.73-19.82,1.19-7.06,3.37-13.95,5.11-20.92a11,11,0,0,0,.3-1.47c1.42-11,2.58-22,4.34-33,1.31-8.17,3.39-16.22,5.13-24.33.07-.32.25-.62.29-.94,1.24-10.26,2.28-20.54,3.75-30.75s3.33-20.11,5-30.16c.11-.65.35-1.28.44-1.94,1.44-10.95,2-22.12,4.58-32.8,2.17-8.94,1.06-18.23,3.48-26.7,1.92-6.68,1.79-13.24,2.83-19.8,1.94-12.23,4.09-24.43,5.71-36.71.93-7,.58-14.13,1.52-21.12,1.09-8.08,3.23-16,4.4-24.11.78-5.41.36-11,1-16.44,1.7-14.08,3.69-28.12,5.58-42.18.11-.82.37-1.63.44-2.45,1.28-15.31,2.38-30.63,3.89-45.92.58-5.92,1.2-12.15,3.56-17.45,1.14-2.57,6.31-4.61,9.72-4.7,17.14-.47,34.31-.32,51.46-.06a6.68,6.68,0,0,1,4.93,3.48c1.7,4.35,3.28,9,3.63,13.59.67,9.13-.83,18.59,1,27.41,2.48,12.15.64,24.59,3.3,36.32,2,9,1.25,17.79,2.49,26.57,1.69,11.91,3.74,23.76,5.64,35.64,0,.16.05.33.07.49,1.38,13.54,2.5,27.11,4.22,40.6,1.4,10.95,3.51,21.81,5.31,32.71.08.49.18,1,.22,1.48,1.4,14.5,2.73,29,4.19,43.49,1,10.34,1,21,3.78,30.89,2.17,7.73,1.56,15.31,2.6,22.9,1.1,8,.74,16.38,3.13,23.92,3.35,10.59,1.91,21.33,3.32,31.92,1.26,9.51,1,19.42,3.69,28.48,2.93,9.9.53,20.05,3.08,29.47,2.48,9.14,1.81,18.24,2.86,27.32,1,8.67,2.32,17.32,3.44,26s1.22,17.63,3.54,26c2.2,7.86,1,16.06,3.18,23.41s.62,15,3,21.83c2.7,7.81,1.79,15.68,3,23.43.58,3.65,2.55,7.08,4.92,10.67.44-1.79,1-3.57,1.29-5.39,1-6.38-.74-13,2.6-19.31,1.62-3.07.32-7.56.8-11.35,1.62-12.82,3.45-25.62,5.19-38.42.24-1.81.41-3.64.58-5.46,1.42-14.83,1.88-29.83,4.6-44.42,1.72-9.19.89-18.66,3.26-27.37,1.93-7.09,1.45-14,2.41-21,1.89-13.71,3.69-27.43,5.53-41.14,0-.33.13-.66.16-1,1.4-15,2-30.14,4.44-45,2-12.13,1.26-24.5,3.51-36.33,1.65-8.69,1.68-17.26,2.63-25.86,1.18-10.67,2.53-21.31,3.77-32,1-8.53.85-17.37,3.18-25.51,2.77-9.67.86-19.69,3.3-28.9,2.34-8.89.64-17.92,2.87-26.31,2.82-10.62,2.34-21.33,3.57-32,.88-7.69,2-15.35,2.89-23,1.17-10.36,1-21.07,3.67-31,2.28-8.44.6-17,2.79-24.94,2.75-9.94,2-19.91,3.19-29.81.58-4.85,2.12-9.59,3.4-14.34,1.2-4.47,6.23-8,10.88-7.9,3,.05,6-.19,9,0,2.27.16,4.51.82,7,.83,2,.3,4,.64,5.92.87,1.29.16,2.83.66,3.84.15,5.06-2.53,9.77-1.19,15-.49,3.85.52,7.76,1.47,11.13,1.58C33-7.83,32.49,1.71,31.6,11c-1,10.5-3.61,20.84-5.05,31.31C25.62,49,25.68,55.89,25,62.69c-1,10.53-.88,21.4-3.69,31.45-2.31,8.29-1.43,16.42-2.63,24.53-1.63,11-1.84,22.24-3.7,33-1.72,9.84-1.74,19.67-3.2,29.41-1.55,10.37-3.51,20.68-5.17,31-.42,2.62-.32,5.31-.53,8-1.15,14.4-1,29.1-4,43.11C.24,272.08.43,280.81-.62,289.58-2,301.07-1.89,312.88-4.56,324c-2.16,9-.6,18.37-3,26.86-2.69,9.41-.63,19-3.05,27.92-2.67,9.86-.76,20-3.16,29.38-2.23,8.69-2.14,17.31-3.14,26-1.07,9.16-1.28,18.56-3.58,27.41-2.38,9.17-.8,18.73-3.24,27.39-2.37,8.38-.4,16.93-2.82,24.68-2.86,9.14-1.38,18.41-3.14,27.34-3.34,17.07-4.57,34.36-7,51.48-1.19,8.35-.39,17.15-2.91,24.87-3.09,9.47-1.55,19-3.28,28.29-2,10.85-4,21.71-5.67,32.62-1.49,9.93-1.35,20.25-4.06,29.8-2.14,7.55-.73,15.37-3.07,22.28-2.14,6.33-1.74,12.53-2.85,18.72-1.36,7.55-3.4,15-5.14,22.45-.15.65-.26,1.31-.35,2-1.4,9.43-2.72,18.88-4.21,28.29-.56,3.57-2.42,6-6.51,5.9-11.17-.12-22.57,1.26-33.44-.59-11.49-1.95-23-2.58-34.46-3.57-2.81-.24-5.5-2-8.72-3.22-1.08-7.74-2.36-15.86-3.33-24-1.74-14.48-2.28-29.17-4.23-43.5-1.36-10-.21-20.25-2.68-29.87-2.85-11.13-2.09-22.4-3.46-33.54-1-8.35-2.1-16.7-3.06-25.06-1-9-.51-18.53-3.35-26.92-3-9-1.34-17.91-2.75-26.72-1.59-9.87-3.55-19.68-5.35-29.51-.06-.33-.13-.66-.16-1-1.43-12.63-1.94-25.46-4.6-37.82-1.84-8.49-.75-17.39-3.31-25.23-2.43-7.41-1.51-14.55-2.44-21.75-1.39-10.83-2.5-21.69-3.74-32.54-1-9-1.18-18.21-3.33-26.93-2.53-10.28-1-21-3.54-30.82-2.26-8.77-1.33-17.39-2.57-26-1.67-11.53-3.72-23-5.24-34.56-.82-6.26-.85-12.62-1.28-18.93a13.88,13.88,0,0,0-.79-4.88,4.16,4.16,0,0,0-3.16-1.65c-.63,0-1.81,1.36-1.93,2.22-1.31,9.24-2.28,18.54-3.7,27.76-1.64,10.74-3.63,21.42-5.48,32.12-.06.33-.16.65-.2,1-1.37,9.72-2.53,19.48-4.16,29.15-1.55,9.13-3.61,18.16-5.44,27.24-.06.32-.14.65-.18,1-1.38,9.67-2.55,19.37-4.19,29-1.59,9.35-3.66,18.61-5.52,27.91-.09.49-.12,1-.18,1.48-1.22,9.32-2.19,18.67-3.72,27.93s-3.62,18.37-5.47,27.55c-.13.65-.38,1.28-.48,1.94-1.28,9.1-2.28,18.25-3.89,27.29-1.4,7.79-3.48,15.45-5.26,23.17-.11.49-.19,1-.27,1.47-1.43,9-2.81,17.93-4.3,26.88-1,5.83-1,12.18-3.45,17.31-2.55,5.28-1.77,10.5-2.83,15.67-1.43,7-3.74,13.74-5.36,20.67-1.55,6.6-2.78,13.27-4,19.93-1.28,6.92-2.19,13.91-3.62,20.79-2,9.62-4.36,19.17-6.51,28.76-1.18,5.25-2,10.6-3.42,15.78-1.39,5-3.37,9.87-5.06,14.81-.26.78-.31,1.63-.55,2.43-2,6.79-4.14,13.53-5.93,20.38-1,3.8-3.52,4.37-6.73,4.17-10.73-.64-21.42.23-32.23-2.24-9.08-2.08-18.9-.94-28.39-1.22-2.5-.07-5,0-7.49-.2-.92-.07-2.38-.43-2.61-1-1.32-3.54-2.91-7.12-3.38-10.81-1.47-11.7-1.31-23.74-4.09-35.09-1.82-7.43-1.68-14.68-2.5-22-1.3-11.66-1.51-23.59-4.28-34.9-2.39-9.77-.61-19.68-2.88-29.06-2.53-10.47-.36-21.41-3.08-31.28-3.8-13.75-1.08-27.54-3.33-41.18-1.74-10.58-1.91-21.42-2.8-32.14-1.16-13.89-1-28.06-3.87-41.58-2.75-13-.24-26.11-3.15-38.59-2.95-12.68-.12-25.62-3.08-37.79-2.73-11.28-.66-22.59-2.82-33.57-3.33-16.94-1.23-34.27-4-51.05-2.41-14.79-.27-29.76-3.11-44.14-2.52-12.73.05-25.73-3-37.86-3.54-14.17-1.25-28.29-3-42.34-1.56-12.65-2.17-25.41-3.22-38.13-1-12-1-24.24-3.26-36-3.63-18.8-.88-37.9-3.51-56.53-4.26-30.18-1.49-60.35-2.18-90.52-.17-7.61,4.82-12.63,12.29-12.68C-421.67-7.28-404.87-7.19-388.53-7.19Z" transform="translate(451.03 29.83)" fill="#231f20"/><path d="M395.83,750.69c0-24.16.06-48.32-.09-72.47,0-2.44-1.22-4.87-1.86-7.31a5.66,5.66,0,0,1-.48-2.41c1.73-7.49-.59-14.93-.28-22.41.33-7.82-.05-15.66-.09-23.49,0-7.67,0-15.33,0-23-.05-7.83-.18-15.66-.26-23.49s.1-15.67-.27-23.48-1.53-15.84-1.83-23.78c-.16-4.4,1.06-8.85,1.07-13.28,0-4.1-.94-8.19-1.16-12.29-.14-2.79.37-5.6.37-8.4,0-5.37-.1-10.75-.2-16.12,0-.82-.4-1.62-.41-2.43-.14-11.31-1-22.69-.07-33.91.58-6.91-.16-13.65.11-20.45.2-4.92,1.27-9.82,1.35-14.73.05-3.92-1.32-7.87-1.2-11.78.67-22.57,1.8-45.12,2.37-67.69.45-18,.06-36,.55-54,.27-10,2.1-20,2.3-30,.5-25.65.29-51.31.79-77,.17-8.95,2.14-17.86,2.35-26.8.68-29,.87-57.95,1.38-86.92.07-3.7,1.19-7.39,1.33-11.1.11-2.9-.81-5.82-.81-8.74,0-7.4.16-14.81.42-22.22.1-2.8.73-5.59,1-8.4,1.41-13.77,14.38-27.5,28.88-30.21,21.45-4,42.72-1.6,64.06-1.85,7.8-.1,15.61,1.7,23.44,2,14,.6,28.13.18,42.11,1.29,9.44.76,18.73,3.4,28.09,5.2,1,.19,1.94.42,2.91.6,6,1.15,12.43,1.39,18,3.66,7.69,3.14,14.52,8.35,22.15,11.69s13.43,8.61,19.06,14.06,10.43,12.23,15.24,18.67A99.89,99.89,0,0,1,675,41.79c2.93,5.68,5.12,11.73,7.7,17.59,1.71,3.89,3.7,7.66,5.27,11.6,1.48,3.72,2.56,7.59,3.84,11.39.89,2.62,2,5.18,2.72,7.84,1.55,5.82,2.75,11.73,4.41,17.51s3.68,11.47,5.55,17.2a6.33,6.33,0,0,1,.28.94c1.15,6.92,2.19,13.86,3.45,20.77,1.9,10.48,4,20.92,5.87,31.41a60,60,0,0,1,.6,10c.06,12.83.51,25.68-.1,38.48q-1.11,23.11-3.84,46.12c-.85,7.15-3.49,14.09-5.31,21.12a14.44,14.44,0,0,0-.21,1.49c-1.17,7.54-2,15.17-3.62,22.61-1.22,5.57-3.51,10.9-5.29,16.35-.31.94-.43,1.94-.71,2.89-2.05,7.05-4.19,14.07-6.17,21.14-1.35,4.8-2.32,9.71-3.76,14.49a63.87,63.87,0,0,1-4,10.29c-3.88,7.67-7.39,15.64-12.23,22.68-6.23,9.07-13,17.92-21.92,24.7-4.38,3.32-8.71,6.71-13.12,10a59,59,0,0,1-8.21,5.57c-9.55,4.81-19.14,9.53-28.88,13.92-9.26,4.18-18.6,8.23-28.14,11.68-5.67,2.05-11.78,2.92-17.72,4.18-9.31,2-18.65,3.83-28,5.73a12.34,12.34,0,0,1-1.49.16c-18,1.4-36,2.94-54,4.11-7.71.5-8,.4-8,8.38.22,34.31-.54,68.67,1.05,102.92,1.15,25,2.11,49.91,2.47,74.88.21,13.82.09,27.65.59,41.46s1.95,27.84,2.31,41.78c.42,16.48.47,33-.06,49.47-.25,7.87-2,15.72-3.46,23.51-.93,4.87-4.15,6.21-9.71,6.35-5.86.14-11.68,1.54-17.55,1.78-9.48.4-19,.35-28.48.42-7.17,0-10.76-3.26-10.88-10.46-.19-10.83-.1-21.66-.11-32.49q0-21.49,0-43Zm64.25-333.08c1.74.09,2.71.19,3.68.19,7.42,0,14.71-1.62,22-2.28,16.63-1.51,33.11-3,49.43-6.91,7.16-1.73,14.26-3.11,21-6.28,7.4-3.51,14.93-6.72,22.49-9.86,8.07-3.35,16-7,22.18-13.3,4.1-4.14,8.27-8.37,11.51-13.17a117.75,117.75,0,0,0,8.9-16.9,67.25,67.25,0,0,0,3.65-11.45c1.33-5.25,2.13-10.64,3.56-15.86,1.65-6,4.05-11.86,5.56-17.92,2.45-9.83,4.74-19.72,6.53-29.7,1.59-8.82,2.57-17.77,3.51-26.7,1.24-11.78-1.62-23.84,2.43-35.48.6-1.74.07-4-.22-5.92-.56-3.7-1.7-7.34-1.91-11-.37-6.47-.19-13-.32-19.48a39.29,39.29,0,0,0-.58-7.45c-1.68-7.53-3.65-15-5.42-22.52-1.48-6.23-2.76-12.5-4.27-18.73-.91-3.75-1.94-7.5-3.2-11.15-1.69-4.88-3.73-9.62-5.46-14.48-1.63-4.57-2.56-9.44-4.66-13.76-3.43-7-7.81-13.56-11.33-20.53-3.89-7.71-10.45-12.59-17.72-16A88,88,0,0,0,570,44.47a184.69,184.69,0,0,0-28.29-3.31c-19.48-.58-39-.36-58.47-.46-4.27,0-8.55,0-13,0a22,22,0,0,0-.38,2.26c-1.13,21.15.12,42.26-2.05,63.54-3.45,33.85.25,68.09-3.27,102.16-2.09,20.13-.74,40.6-1.27,60.91-.36,13.9-1.3,27.78-1.94,41.66a33.58,33.58,0,0,0,.46,3.41,58.81,58.81,0,0,1,.35,8.27c-.31,4.13-1.43,8.21-1.53,12.32-.35,14.49-.48,29-.57,43.47C460,391.49,460.08,404.29,460.08,417.61Z" transform="translate(451.03 29.83)" fill="#231f20"/><path d="M226.79,428.16c5.56-11.75,10.39-22,15.06-31.83-4.16-1.59-7.64-2.61-10.79-4.26a5.52,5.52,0,0,1-2.29-4.14c-.12-9,0-18,.2-27,.12-5,2.74-6.62,7.26-8,14.14-4.46,29-.87,42.94-3.84,12.42-2.64,24.66-1.37,36.95-2.15,6.71-.42,9.26,3.41,7.64,10.18-.17.73.63,1.63.65,2.45.24,8.29.78,16.6.26,24.84-.1,1.54-4.39,3.36-7,4.08-4.33,1.17-9.55,3.28-13.17,1.87-5.61-2.21-9.41,1.47-13.64,1.66-3.5,7.09-7,13.93-10.29,20.92-3.75,8.12-6.85,16.57-10.95,24.51-4.58,8.87-10.37,17.13-14.74,26.09-1.49,3.05-1.14,7.7-.06,11.13,1.25,4,4.23,7.35,6.47,11,2.92,4.77,5.78,9.58,8.79,14.3q9.15,14.34,18.45,28.59a8.54,8.54,0,0,1-2.8,12.18q-10.12,6.16-20.17,12.46c-1.38.86-2.45,2.33-3.91,2.93-4.83,2-7.85-1.47-10-4.63-5.64-8.26-10.79-16.86-16-25.41-2.54-4.17-4.81-8.51-7.16-12.79-1.72-3.13-4.32-3.25-6.71-.81-8.11,8.34-16.22,16.69-24.67,24.67A216.86,216.86,0,0,1,176.24,555c-4.69,3.43-10.47,5.41-15.87,7.82-4.55,2-9.1,4.44-13.91,5.42-5.15,1-10.6.61-15.93.82-15.77.62-28.9-5.79-39.62-16.58-4.65-4.68-7.52-11.3-10.57-17.36-6.64-13.2-7.15-27.53-5.9-41.79.59-6.74,3.3-13.3,5.16-19.91,1.22-4.36,2.43-8.74,4-13,1.79-4.73,4-9.29,6.06-13.92,2.41-5.45,4.68-11,7.26-16.32,2-4.23,4.4-8.32,6.74-12.4,1.64-2.85,3.46-5.6,5.24-8.36,3.15-4.86,6.38-9.66,9.48-14.55,3.58-5.64,7-11.38,10.61-17,2.6-4.05,5.52-7.9,8.06-12,.69-1.1,1.16-3,.68-4.07-2.36-5.2-5.17-10.2-7.63-15.36a91.72,91.72,0,0,1-3.55-9c-1.59-4.52-2.92-9.14-4.59-13.63s-3.77-8.55-5.29-12.94a65.25,65.25,0,0,1-3.41-12.71c-1.31-10.17-3-20.42-2.85-30.62.1-8.29,2.39-16.51,4.72-24.69A50.9,50.9,0,0,1,125.83,223c6.07-6.9,11.93-14.44,20.7-18.43,4.27-1.95,8.65-4.92,13.05-5a57.32,57.32,0,0,1,19.26,3c6,2,11.35,5.69,17,8.67,8.22,4.36,14.53,10.86,19.64,18.43,2.67,4,4.4,8.53,6.59,12.81a57,57,0,0,1,5.81,32.14c-.9,9-4,17.73-5.2,26.7-.9,7-3.9,12.89-7.07,18.81-2.59,4.85-5.71,9.41-8.54,14.13-1.43,2.4-2.69,4.91-4.13,7.31-3.86,6.41-7.87,12.73-11.6,19.22-1.8,3.13-2.74,6,.35,9.7,3.24,3.85,5,8.94,7.59,13.36,2.47,4.17,5.29,8.12,7.84,12.24,4,6.46,7.87,13,11.83,19.49C221.29,419.43,223.72,423.25,226.79,428.16ZM162.27,405.7a54.53,54.53,0,0,0-4.17,5.06c-4.46,6.83-9.11,13.57-13.08,20.68-5.71,10.24-11,20.72-16.25,31.2-1.94,3.86-3.35,8-4.9,12-1.69,4.43-4.28,8.82-4.66,13.37a222.27,222.27,0,0,0-.16,27.92c.11,2.65,1.67,6.09,3.72,7.59,2.7,2,6.65,3.56,9.88,3.26a35.42,35.42,0,0,0,14.63-4.33c6.87-4.13,13.07-9.42,19.33-14.49a101.73,101.73,0,0,0,12.83-11.68c6.47-7.41,12.1-15.56,18.59-22.95,3.28-3.72,2.14-7,.45-10.3-1.42-2.8-3.81-5.09-5.43-7.82-4.63-7.81-8.89-15.86-13.69-23.57C173.92,422.93,168.05,414.46,162.27,405.7Zm2.82-87.42c.78-.41,2.15-.7,2.77-1.54a48.3,48.3,0,0,0,5.12-8c3.63-7.67,8.05-15.21,10.07-23.32a53.18,53.18,0,0,0,1.29-19.89c-1-7.77-4.25-13.44-10.17-17.7-2.66-1.91-7.38-4.47-9.18-3.4-5.15,3.07-9.62,8.29-10.48,14.23-2,14.19-.44,28.36,3.88,42.07C160.21,306.5,162.68,312,165.09,318.28Z" transform="translate(451.03 29.83)" fill="#231f20"/></svg>